<svg viewBox="0 0 48 48" width="48" height="48" xmlns="http://www.w3.org/2000/svg" role="img" aria-label="Tim Wall Insurance Agency LLC">
  <defs>
    <linearGradient id="tg-bg" x1="0" y1="0" x2="1" y2="1">
      <stop offset="0" stop-color="#0b1220"/>
      <stop offset="1" stop-color="#16213d"/>
    </linearGradient>
    <radialGradient id="tg-glow" cx="0.5" cy="0.08" r="0.95">
      <stop offset="0" stop-color="#1d4ed8" stop-opacity="0.45"/>
      <stop offset="1" stop-color="#1d4ed8" stop-opacity="0"/>
    </radialGradient>
    <clipPath id="tg-clip"><rect x="1" y="1" width="46" height="46" rx="13"/></clipPath>
  </defs>
  <g clip-path="url(#tg-clip)">
    <rect x="1" y="1" width="46" height="46" fill="url(#tg-bg)"/>
    <rect x="1" y="1" width="46" height="46" fill="url(#tg-glow)"/>
  </g>
  <rect x="1.5" y="1.5" width="45" height="45" rx="12.5" fill="none" stroke="#ffffff" stroke-opacity="0.10"/>

  <g fill="#ffffff">
    <!-- T (filled, flat terminals), center x=16 -->
    <path d="M9.2 15 H22.8 V18.8 H17.8 V33 H14.2 V18.8 H9.2 Z"/>
    <!-- W (filled, beveled valleys, flat top terminals), center x=31.5 -->
    <path d="M22.65 15.00 L26.55 33.48 L30.98 33.73 L34.18 24.23 L29.82 24.23 L33.02 33.73 L37.45 33.48 L41.35 15.00 L36.65 15.00 L32.95 32.52 L37.38 32.27 L34.18 22.77 L29.82 22.77 L26.62 32.27 L31.05 32.52 L27.35 15.00 Z"/>
  </g>
</svg>
